<?xml version="1.0" standalone="no"?>
<!DOCTYPE svg PUBLIC "-//W3C//DTD SVG 20010904//EN"
 "http://www.w3.org/TR/2001/REC-SVG-20010904/DTD/svg10.dtd">
<svg version="1.0" xmlns="http://www.w3.org/2000/svg"
 width="577.000000pt" height="433.000000pt" viewBox="0 0 577.000000 433.000000"
 preserveAspectRatio="xMidYMid meet">

<g transform="translate(0.000000,433.000000) scale(0.100000,-0.100000)"
fill="#000000" stroke="none">
<path d="M2417 2842 c-14 -15 -17 -40 -17 -125 l0 -107 -83 0 c-87 0 -107 -8
-107 -45 0 -37 20 -45 107 -45 l83 0 0 -281 c0 -335 3 -354 74 -424 62 -61
107 -75 239 -75 101 0 117 7 117 52 0 33 -9 36 -130 40 -113 5 -151 23 -185
91 -25 51 -25 52 -25 324 l0 273 129 0 c71 0 136 3 145 6 10 4 16 18 16 39 0
21 -6 35 -16 39 -9 3 -74 6 -145 6 l-129 0 0 115 c0 103 -2 115 -19 125 -27
14 -35 13 -54 -8z"/>
<path d="M2953 2604 c-7 -3 -13 -21 -13 -40 0 -43 -2 -43 230 -46 172 -3 188
-5 221 -26 73 -45 74 -49 74 -313 l0 -235 -27 -41 c-42 -63 -83 -73 -310 -73
l-188 0 0 -210 0 -210 27 -6 c54 -14 58 -2 61 175 l2 161 158 0 c221 0 279 19
340 114 l27 41 3 254 c5 328 -5 363 -118 429 -45 27 -47 27 -260 29 -118 1
-221 0 -227 -3z"/>
<path d="M2900 2402 c-25 -9 -66 -38 -91 -63 -38 -37 -49 -57 -59 -101 -24
-106 15 -208 101 -265 35 -23 55 -29 118 -31 114 -5 183 33 231 129 26 50 27
160 2 205 -64 117 -190 169 -302 126z"/>
</g>
</svg>
